<mxfile host="app.diagrams.net" modified="2022-12-24T21:15:09.709Z" agent="5.0 (X11; Linux x86_64) AppleWebKit/537.36 (KHTML, like Gecko) Chrome/106.0.0.0 YaBrowser/22.11.0.2484 Yowser/2.5 Safari/537.36" etag="IxfN0DCC43OWcDUYLeEM" version="20.7.4" type="github">
  <diagram id="KABMMS9KLZD0B9iKU8vf" name="Страница 1">
    <mxGraphModel dx="1337" dy="794" grid="1" gridSize="10" guides="1" tooltips="1" connect="1" arrows="1" fold="1" page="1" pageScale="1" pageWidth="827" pageHeight="1169" math="0" shadow="0">
      <root>
        <mxCell id="0" />
        <mxCell id="1" parent="0" />
        <mxCell id="HNvyiuLMDOZ_RDH-ft2S-1" value="система помощи принятия решения в транспортно-экспедиционной компании" style="rounded=0;whiteSpace=wrap;html=1;" parent="1" vertex="1">
          <mxGeometry x="260" y="270" width="310" height="120" as="geometry" />
        </mxCell>
        <mxCell id="HNvyiuLMDOZ_RDH-ft2S-2" value="" style="endArrow=classic;html=1;rounded=0;entryX=0;entryY=0.75;entryDx=0;entryDy=0;" parent="1" target="HNvyiuLMDOZ_RDH-ft2S-1" edge="1">
          <mxGeometry width="50" height="50" relative="1" as="geometry">
            <mxPoint x="40" y="360" as="sourcePoint" />
            <mxPoint x="450" y="340" as="targetPoint" />
            <Array as="points">
              <mxPoint x="140" y="360" />
            </Array>
          </mxGeometry>
        </mxCell>
        <mxCell id="HNvyiuLMDOZ_RDH-ft2S-4" value="клиенты, грузы" style="rounded=0;whiteSpace=wrap;html=1;strokeColor=none;" parent="1" vertex="1">
          <mxGeometry x="50" y="290" width="190" height="60" as="geometry" />
        </mxCell>
        <mxCell id="HNvyiuLMDOZ_RDH-ft2S-5" value="" style="endArrow=classic;html=1;rounded=0;entryX=0.194;entryY=1.018;entryDx=0;entryDy=0;entryPerimeter=0;" parent="1" target="HNvyiuLMDOZ_RDH-ft2S-1" edge="1">
          <mxGeometry x="-1" y="-81" width="50" height="50" relative="1" as="geometry">
            <mxPoint x="320" y="520" as="sourcePoint" />
            <mxPoint x="410" y="510" as="targetPoint" />
            <Array as="points">
              <mxPoint x="320" y="450" />
            </Array>
            <mxPoint x="-47" y="23" as="offset" />
          </mxGeometry>
        </mxCell>
        <mxCell id="HNvyiuLMDOZ_RDH-ft2S-6" value="грузы" style="rounded=0;whiteSpace=wrap;html=1;strokeColor=none;" parent="1" vertex="1">
          <mxGeometry x="350" y="430" width="190" height="60" as="geometry" />
        </mxCell>
        <mxCell id="HNvyiuLMDOZ_RDH-ft2S-7" value="транспорт" style="rounded=0;whiteSpace=wrap;html=1;strokeColor=none;" parent="1" vertex="1">
          <mxGeometry x="350" y="190" width="190" height="60" as="geometry" />
        </mxCell>
        <mxCell id="HNvyiuLMDOZ_RDH-ft2S-8" value="" style="endArrow=classic;html=1;rounded=0;entryX=0.194;entryY=0;entryDx=0;entryDy=0;entryPerimeter=0;" parent="1" target="HNvyiuLMDOZ_RDH-ft2S-1" edge="1">
          <mxGeometry x="-1" y="-81" width="50" height="50" relative="1" as="geometry">
            <mxPoint x="320" y="168" as="sourcePoint" />
            <mxPoint x="300.1399999999999" y="110.00000000000006" as="targetPoint" />
            <Array as="points">
              <mxPoint x="320" y="220" />
            </Array>
            <mxPoint x="-47" y="23" as="offset" />
          </mxGeometry>
        </mxCell>
        <mxCell id="HNvyiuLMDOZ_RDH-ft2S-9" value="" style="endArrow=classic;html=1;rounded=0;entryX=0;entryY=0.75;entryDx=0;entryDy=0;" parent="1" edge="1">
          <mxGeometry width="50" height="50" relative="1" as="geometry">
            <mxPoint x="570" y="309.9999999999999" as="sourcePoint" />
            <mxPoint x="790" y="309.9999999999999" as="targetPoint" />
            <Array as="points">
              <mxPoint x="670" y="310" />
            </Array>
          </mxGeometry>
        </mxCell>
        <mxCell id="HNvyiuLMDOZ_RDH-ft2S-10" value="" style="endArrow=classic;html=1;rounded=0;entryX=0;entryY=0.75;entryDx=0;entryDy=0;" parent="1" edge="1">
          <mxGeometry width="50" height="50" relative="1" as="geometry">
            <mxPoint x="570" y="349.9999999999999" as="sourcePoint" />
            <mxPoint x="790" y="349.9999999999999" as="targetPoint" />
            <Array as="points">
              <mxPoint x="670" y="350" />
            </Array>
          </mxGeometry>
        </mxCell>
        <mxCell id="HNvyiuLMDOZ_RDH-ft2S-11" value="отчеты" style="rounded=0;whiteSpace=wrap;html=1;strokeColor=none;" parent="1" vertex="1">
          <mxGeometry x="590" y="370" width="190" height="60" as="geometry" />
        </mxCell>
        <mxCell id="HNvyiuLMDOZ_RDH-ft2S-12" value="выполненные заказы" style="rounded=0;whiteSpace=wrap;html=1;strokeColor=none;" parent="1" vertex="1">
          <mxGeometry x="590" y="230" width="190" height="60" as="geometry" />
        </mxCell>
      </root>
    </mxGraphModel>
  </diagram>
</mxfile>
